HIERARCHY
ROOT Hips
{
	OFFSET -3.958830 18.904000 13.208200
	CHANNELS 6 Xposition Yposition Zposition Zrotation Yrotation Xrotation 
	JOINT LHipJoint
	{
		OFFSET 0.000000 0.000000 0.000000
		CHANNELS 3 Zrotation Yrotation Xrotation
		JOINT LeftUpLeg
		{
			OFFSET 1.800000 -1.400000 0.085000
			CHANNELS 3 Zrotation Yrotation Xrotation
			JOINT LeftLeg
			{
				OFFSET 2.215000 -6.000000 0.000000
				CHANNELS 3 Zrotation Yrotation Xrotation
				JOINT LeftFoot
				{
					OFFSET 2.500000 -6.900000 0.000000
					CHANNELS 3 Zrotation Yrotation Xrotation
					JOINT LeftToeBase
					{
						OFFSET 0.200000 -0.500000 1.950000
						CHANNELS 3 Zrotation Yrotation Xrotation
						End Site
						{
							OFFSET 0.000000 0.000000 0.000000
						}
					}
				}
			}
		}
	}
	JOINT RHipJoint
	{
		OFFSET 0.000000 0.000000 0.000000
		CHANNELS 3 Zrotation Yrotation Xrotation
		JOINT RightUpLeg
		{
			OFFSET -1.800000 -1.400000 0.085000
			CHANNELS 3 Zrotation Yrotation Xrotation
			JOINT RightLeg
			{
				OFFSET -2.215000 -6.000000 0.000000
				CHANNELS 3 Zrotation Yrotation Xrotation
				JOINT RightFoot
				{
					OFFSET -2.500000 -6.900000 0.000000
					CHANNELS 3 Zrotation Yrotation Xrotation
					JOINT RightToeBase
					{
						OFFSET -0.200000 -0.500000 1.950000
						CHANNELS 3 Zrotation Yrotation Xrotation
						End Site
						{
							OFFSET 0.000000 0.000000 0.000000
						}
					}
				}
			}
		}
	}
	JOINT LowerBack
	{
		OFFSET 0.000000 0.000000 0.000000
		CHANNELS 3 Zrotation Yrotation Xrotation
		JOINT Spine
		{
			OFFSET -0.087000 1.940000 -0.288900
			CHANNELS 3 Zrotation Yrotation Xrotation
			JOINT Spine1
			{
				OFFSET 0.000000 1.950000 0.060000
				CHANNELS 3 Zrotation Yrotation Xrotation
				JOINT Neck
				{
					OFFSET 0.000000 0.000000 0.000000
					CHANNELS 3 Zrotation Yrotation Xrotation
					JOINT Neck1
					{
						OFFSET 0.000000 1.600000 0.340000
						CHANNELS 3 Zrotation Yrotation Xrotation
						JOINT Head
						{
							OFFSET 0.000000 1.667000 -0.240000
							CHANNELS 3 Zrotation Yrotation Xrotation
							End Site
							{
								OFFSET 0.000000 0.000000 0.000000
							}
						}
					}
				}
				JOINT LeftShoulder
				{
					OFFSET 0.000000 0.000000 0.000000
					CHANNELS 3 Zrotation Yrotation Xrotation
					JOINT LeftArm
					{
						OFFSET 2.700000 1.550000 -0.730000
						CHANNELS 3 Zrotation Yrotation Xrotation
						JOINT LeftForeArm
						{
							OFFSET 5.450000 0.000000 0.000000
							CHANNELS 3 Zrotation Yrotation Xrotation
							JOINT LeftHand
							{
								OFFSET 3.450000 0.000000 0.000000
								CHANNELS 3 Zrotation Yrotation Xrotation
								JOINT LeftHandIndex1
								{
									OFFSET 0.750000 0.000000 0.000000
									CHANNELS 3 Zrotation Yrotation Xrotation
									End Site
									{
										OFFSET 0.000000 0.000000 0.000000
									}
								}
							}
						}
					}
				}
				JOINT RightShoulder
				{
					OFFSET 0.000000 0.000000 0.000000
					CHANNELS 3 Zrotation Yrotation Xrotation
					JOINT RightArm
					{
						OFFSET -2.700000 1.550000 -0.730000
						CHANNELS 3 Zrotation Yrotation Xrotation
						JOINT RightForeArm
						{
							OFFSET -5.450000 0.000000 0.000000
							CHANNELS 3 Zrotation Yrotation Xrotation
							JOINT RightHand
							{
								OFFSET -3.450000 0.000000 0.000000
								CHANNELS 3 Zrotation Yrotation Xrotation
								JOINT RightHandIndex1
								{
									OFFSET -0.750000 0.000000 0.000000
									CHANNELS 3 Zrotation Yrotation Xrotation
									End Site
									{
										OFFSET 0.000000 0.000000 0.000000
									}
								}
							}
						}
					}
				}
			}
		}
	}
}
MOTION
Frames: 9
Frame Time: 0.016667
0.038810 16.604610 -1.037110 -3.198754 -1.866234 -2.477907 -15.211528 13.113987 3.746176 10.273596 -3.549318 -17.980931 -18.552248 15.769967 34.468383 0.780727 8.720093 1.595271 -0.082410 -0.237370 -0.123030 18.103392 -10.258888 3.008095 -8.493520 4.088695 -14.607595 21.160254 -14.179618 32.772835 -0.765137 -6.906292 1.982996 -0.115490 0.341980 0.133890 -3.252005 -2.546992 -8.522488 8.519919 -0.714997 17.647027 -3.478915 1.765559 -1.575498 2.629314 -2.582389 -13.899560 -7.140210 1.938876 35.010769 -1.045560 0.517490 0.454150 -14.458090 -15.449456 4.737007 20.451870 3.564038 -1.400043 22.672708 -7.470057 -0.848599 -4.079190 2.861757 0.205490 0.177370 -0.113310 0.103190 9.688336 19.086578 10.527069 -19.521848 -2.108953 -2.563825 -15.063327 0.637426 -0.143207 2.713993 -1.225229 -0.176010 0.141780 0.145310 -0.020060 
0.034030 16.559090 -1.047030 -3.286080 -1.748524 -3.013469 -15.231105 12.995076 3.817190 11.143959 -3.712719 -18.350957 -19.426679 16.700405 35.758360 0.883973 9.145429 1.460811 -0.079660 -0.223270 -0.128200 18.108395 -10.149601 3.023982 -9.016708 4.325576 -14.784594 22.214565 -15.055157 33.934648 -0.837513 -7.250895 1.869142 -0.103940 0.353590 0.135080 -3.238359 -2.547340 -8.578784 8.488254 -0.869376 18.370434 -3.484385 1.705035 -0.935677 2.650274 -2.511531 -14.039930 -6.853272 1.878501 34.496706 -1.200060 0.592690 0.581120 -14.286321 -15.469670 4.836909 19.653010 3.626679 -1.556966 23.259585 -7.422754 -0.922325 -4.103292 2.872072 0.179620 0.192570 -0.123490 0.108450 9.443925 19.105830 10.722851 -18.373033 -1.843252 -2.702756 -15.929186 0.302445 -0.196689 2.726720 -1.249729 -0.170700 0.142820 0.141610 -0.011310 
0.028720 16.515830 -1.049780 -3.265878 -1.700449 -3.213569 -15.255021 12.871542 3.904333 11.957542 -3.864312 -18.881914 -20.432327 17.605365 36.711185 0.973733 9.516770 1.341682 -0.078280 -0.219410 -0.129530 18.107237 -10.030640 3.048739 -9.744330 4.554378 -15.199724 23.358469 -15.916702 34.836400 -0.906420 -7.551789 1.771721 -0.102860 0.354820 0.133830 -3.208548 -2.559573 -8.656072 8.245810 -0.850928 18.706196 -3.316669 1.714100 -0.777450 2.638268 -2.406884 -14.086320 -6.656860 1.778320 34.515102 -1.258750 0.568820 0.660480 -14.406716 -15.506269 4.881117 19.045409 3.629625 -1.645503 23.546925 -7.578700 -0.973649 -4.106295 2.875242 0.174140 0.196080 -0.126060 0.110730 9.590449 19.091672 10.790523 -17.609095 -1.762427 -2.793636 -16.509780 0.374985 -0.223712 2.726468 -1.260977 -0.168360 0.142760 0.139310 -0.010070 
0.021910 16.475400 -1.049820 -3.298140 -1.666843 -3.220508 -15.269493 12.741752 3.996064 12.787199 -3.995452 -19.550652 -21.372944 18.448775 37.519491 1.054605 9.846337 1.235657 -0.077030 -0.217640 -0.131440 18.116944 -9.923149 3.070882 -10.237928 4.780432 -15.741704 24.181354 -16.634120 35.698687 -0.966054 -7.793859 1.692655 -0.105090 0.354730 0.132960 -3.207245 -2.546442 -8.728155 8.181643 -0.857802 18.797797 -3.253740 1.714335 -0.759512 2.560959 -2.366283 -14.053067 -6.614462 1.707587 34.594029 -1.059000 0.411310 0.652350 -14.601452 -15.499489 4.892594 18.623971 3.528248 -1.687236 23.347542 -7.502341 -0.972178 -4.102298 2.874755 0.174390 0.193780 -0.125240 0.112740 9.933462 19.005143 10.770028 -16.962046 -1.685979 -2.858514 -16.940373 0.550234 -0.238199 2.725197 -1.267422 -0.165250 0.142910 0.137740 -0.007760 
0.014770 16.437000 -1.042990 -3.292969 -1.600040 -2.890455 -15.286276 12.606467 4.097955 13.486810 -4.153149 -20.447698 -22.270193 19.235272 38.207884 1.123094 10.135644 1.143463 -0.077950 -0.225450 -0.129860 18.126095 -9.810053 3.097758 -10.699947 4.993692 -16.536723 24.917268 -17.289359 36.437758 -1.018067 -7.992379 1.628048 -0.114280 0.350320 0.130040 -3.202101 -2.537756 -8.807703 8.023129 -0.792810 18.462552 -3.059391 1.698939 -1.095812 2.444801 -2.299454 -13.856078 -6.596824 1.594883 34.849968 -0.822420 0.201660 0.663720 -15.132347 -15.469584 4.842618 18.414871 3.482436 -1.644131 22.907857 -7.634775 -0.948899 -4.083633 2.873466 0.186580 0.185460 -0.122080 0.112700 10.700262 18.817841 10.561936 -16.812431 -1.671792 -2.880467 -17.084210 1.047191 -0.238473 2.714400 -1.265741 -0.166390 0.142670 0.136670 -0.010810 
0.008720 16.401030 -1.041010 -3.320984 -1.484137 -2.921060 -15.303288 12.504735 4.181664 14.130263 -4.282160 -21.013016 -22.985638 19.950984 38.939565 1.189962 10.407461 1.055138 -0.081190 -0.226720 -0.133550 18.129651 -9.715187 3.115437 -11.076020 5.131044 -16.923316 25.586575 -17.914716 37.112140 -1.068322 -8.189114 1.561699 -0.116170 0.346430 0.126320 -3.188334 -2.552417 -8.873158 7.915818 -0.804979 18.577244 -2.925550 1.684306 -1.168895 2.384986 -2.293834 -13.819468 -6.646027 1.539584 35.008742 -0.644290 0.046150 0.624570 -15.388955 -15.425642 4.833638 17.927964 3.371371 -1.679704 22.769803 -7.612937 -0.950791 -4.077198 2.872174 0.188360 0.179670 -0.119770 0.110640 11.087974 18.727226 10.544809 -16.304104 -1.767632 -2.902343 -17.335447 1.243758 -0.243911 2.714752 -1.265791 -0.165950 0.143000 0.138370 -0.009600 
0.003100 16.364530 -1.041250 -3.363331 -1.324028 -3.100799 -15.326195 12.431117 4.250128 14.671103 -4.421005 -21.438791 -23.440904 20.567466 39.776109 1.247896 10.656335 0.975530 -0.074280 -0.218480 -0.129280 18.123843 -9.628788 3.130013 -11.379707 5.237205 -17.135884 26.187355 -18.527485 37.793148 -1.124135 -8.386897 1.496483 -0.112110 0.339110 0.126810 -3.152056 -2.593776 -8.929202 7.708604 -0.816025 18.946679 -2.687614 1.674377 -1.164375 2.369355 -2.235162 -13.859351 -6.557424 1.435611 35.049909 -0.619060 -0.034350 0.402820 -15.514431 -15.406618 4.861843 17.427781 3.194754 -1.738041 22.611329 -7.204950 -0.934745 -4.077971 2.868836 0.191720 0.174540 -0.114470 0.111490 11.266708 18.673594 10.605250 -15.662514 -1.910831 -2.925330 -17.604746 1.302393 -0.255646 2.714436 -1.271151 -0.163010 0.141400 0.134700 -0.010710 
-0.000210 16.329830 -1.045900 -3.442265 -1.196929 -3.543337 -15.343437 12.378401 4.303056 15.152369 -4.537177 -21.604772 -23.799003 21.145283 40.643891 1.298680 10.898655 0.900071 -0.058390 -0.202330 -0.120510 18.119379 -9.556264 3.140894 -11.631685 5.328631 -17.067933 26.781649 -19.129353 38.431918 -1.184514 -8.586471 1.435739 -0.102220 0.333470 0.128230 -3.125202 -2.642268 -8.974605 7.676699 -0.910645 19.652960 -2.619542 1.672956 -0.962403 2.404858 -2.270517 -14.027820 -6.618691 1.441883 35.086872 -0.563910 -0.080770 0.011840 -15.392922 -15.371792 4.938926 16.639531 2.975029 -1.844802 22.709536 -6.591177 -0.941975 -4.085093 2.860857 0.198880 0.170640 -0.109950 0.114950 11.091870 18.723510 10.783465 -14.725491 -1.998132 -3.024417 -18.200814 1.194483 -0.284600 2.712329 -1.281909 -0.160870 0.143250 0.129260 -0.013840 
-0.002920 16.295520 -1.055340 -3.562905 -1.045692 -4.303492 -15.357619 12.348850 4.331783 15.558439 -4.642724 -21.481149 -23.920941 21.662605 41.676097 1.362205 11.133216 0.827959 -0.039520 -0.170450 -0.113910 18.114614 -9.510455 3.136391 -11.734860 5.369075 -16.646749 27.195970 -19.649464 39.072754 -1.242408 -8.775478 1.375710 -0.084240 0.328900 0.134340 -3.101694 -2.681254 -8.991232 7.722808 -1.065214 20.688827 -2.640334 1.667012 -0.306339 2.488027 -2.311069 -14.319533 -6.581798 1.427763 34.796168 -0.635560 -0.050050 -0.451850 -14.922840 -15.334207 5.072693 15.521476 2.693714 -2.030426 23.059019 -5.757219 -0.960731 -4.107064 2.863444 0.185800 0.171740 -0.103340 0.120520 10.453284 18.839546 11.113766 -13.254693 -2.007010 -3.156318 -18.933692 0.662550 -0.326768 2.727148 -1.304840 -0.147300 0.142370 0.120660 -0.006880 
